{
  "accessors": [
    {
      "bufferView": 1,
      "componentType": 5126,
      "count": 703,
      "max": [
        11.632656097412109,
        11.5738525390625,
        15.591170310974121
      ],
      "min": [
        -11.623926162719727,
        1.5738663673400879,
        12.063555717468262
      ],
      "type": "VEC3"
    },
    {
      "bufferView": 1,
      "byteOffset": 8436,
      "componentType": 5126,
      "count": 703,
      "max": [
        0.99839115142822266,
        0.99999886751174927,
        1
      ],
      "min": [
        -0.99839109182357788,
        -0.99839115142822266,
        -1
      ],
      "type": "VEC3"
    },
    {
      "bufferView": 2,
      "componentType": 5126,
      "count": 703,
      "max": [
        1,
        0.84418267011642456,
        0.9156990647315979,
        1
      ],
      "min": [
        -1,
        -1,
        -0.93834233283996582,
        -1
      ],
      "type": "VEC4"
    },
    {
      "bufferView": 0,
      "componentType": 5125,
      "count": 3228,
      "max": [
        702
      ],
      "min": [
        0
      ],
      "type": "SCALAR"
    },
    {
      "bufferView": 1,
      "byteOffset": 16872,
      "componentType": 5126,
      "count": 21,
      "max": [
        11.105491638183594,
        10.833807945251465,
        15.144403457641602
      ],
      "min": [
        2.0399341583251953,
        2.1010327339172363,
        15.144403457641602
      ],
      "type": "VEC3"
    },
    {
      "bufferView": 1,
      "byteOffset": 17124,
      "componentType": 5126,
      "count": 21,
      "max": [
        0.091468505561351776,
        0.093650549650192261,
        1
      ],
      "min": [
        -0.0936569944024086,
        -0.095337048172950745,
        0.99505680799484253
      ],
      "type": "VEC3"
    },
    {
      "bufferView": 2,
      "byteOffset": 11248,
      "componentType": 5126,
      "count": 21,
      "max": [
        -0.99472612142562866,
        0.043255984783172607,
        0.091057494282722473,
        -1
      ],
      "min": [
        -0.99999254941940308,
        -0.089473932981491089,
        -0.093574360013008118,
        -1
      ],
      "type": "VEC4"
    },
    {
      "bufferView": 0,
      "byteOffset": 12912,
      "componentType": 5125,
      "count": 60,
      "max": [
        20
      ],
      "min": [
        0
      ],
      "type": "SCALAR"
    },
    {
      "bufferView": 1,
      "byteOffset": 17376,
      "componentType": 5126,
      "count": 191,
      "max": [
        1.1564522981643677,
        8.6116094589233398,
        15.591170310974121
      ],
      "min": [
        -8.7697114944458008,
        4.4602260589599609,
        14.732937812805176
      ],
      "type": "VEC3"
    },
    {
      "bufferView": 1,
      "byteOffset": 19668,
      "componentType": 5126,
      "count": 191,
      "max": [
        0.99679183959960938,
        0.99686849117279053,
        1
      ],
      "min": [
        -0.99699854850769043,
        -0.996543288230896,
        -0.38063311576843262
      ],
      "type": "VEC3"
    },
    {
      "bufferView": 2,
      "byteOffset": 11584,
      "componentType": 5126,
      "count": 191,
      "max": [
        0.99997127056121826,
        0.56858670711517334,
        0.99131917953491211,
        1
      ],
      "min": [
        -0.18191920220851898,
        -0.63503420352935791,
        -0.99013954401016235,
        -1
      ],
      "type": "VEC4"
    },
    {
      "bufferView": 0,
      "byteOffset": 13152,
      "componentType": 5125,
      "count": 918,
      "max": [
        190
      ],
      "min": [
        0
      ],
      "type": "SCALAR"
    },
    {
      "bufferView": 1,
      "byteOffset": 21960,
      "componentType": 5126,
      "count": 110,
      "max": [
        8.2369775772094727,
        7.4747214317321777,
        -3.7800178527832031
      ],
      "min": [
        2.5813634395599365,
        5.3803677558898926,
        -5.8743715286254883
      ],
      "type": "VEC3"
    },
    {
      "bufferView": 1,
      "byteOffset": 23280,
      "componentType": 5126,
      "count": 110,
      "max": [
        1,
        1,
        1
      ],
      "min": [
        -1,
        -1,
        0
      ],
      "type": "VEC3"
    },
    {
      "bufferView": 2,
      "byteOffset": 14640,
      "componentType": 5126,
      "count": 110,
      "max": [
        0.99982070922851562,
        1,
        0.96022164821624756,
        1
      ],
      "min": [
        -0.99936759471893311,
        -1,
        -0.96022206544876099,
        1
      ],
      "type": "VEC4"
    },
    {
      "bufferView": 0,
      "byteOffset": 16824,
      "componentType": 5125,
      "count": 312,
      "max": [
        109
      ],
      "min": [
        0
      ],
      "type": "SCALAR"
    },
    {
      "bufferView": 1,
      "byteOffset": 24600,
      "componentType": 5126,
      "count": 110,
      "max": [
        8.2369775772094727,
        7.4747214317321777,
        -3.7800178527832031
      ],
      "min": [
        2.5813634395599365,
        5.3803677558898926,
        -5.8743715286254883
      ],
      "type": "VEC3"
    },
    {
      "bufferView": 1,
      "byteOffset": 25920,
      "componentType": 5126,
      "count": 110,
      "max": [
        1,
        1,
        1
      ],
      "min": [
        -1,
        -1,
        0
      ],
      "type": "VEC3"
    },
    {
      "bufferView": 2,
      "byteOffset": 16400,
      "componentType": 5126,
      "count": 110,
      "max": [
        0.99982070922851562,
        1,
        0.96022164821624756,
        1
      ],
      "min": [
        -0.99936759471893311,
        -1,
        -0.96022206544876099,
        1
      ],
      "type": "VEC4"
    },
    {
      "bufferView": 0,
      "byteOffset": 18072,
      "componentType": 5125,
      "count": 312,
      "max": [
        109
      ],
      "min": [
        0
      ],
      "type": "SCALAR"
    },
    {
      "bufferView": 1,
      "byteOffset": 27240,
      "componentType": 5126,
      "count": 124,
      "max": [
        1.0000004768371582,
        1.7675471305847168,
        1.0000001192092896
      ],
      "min": [
        -1.0000004768371582,
        -1,
        -1.0000004768371582
      ],
      "type": "VEC3"
    },
    {
      "bufferView": 1,
      "byteOffset": 28728,
      "componentType": 5126,
      "count": 124,
      "max": [
        1,
        1,
        1
      ],
      "min": [
        -1,
        0,
        -1
      ],
      "type": "VEC3"
    },
    {
      "bufferView": 2,
      "byteOffset": 18160,
      "componentType": 5126,
      "count": 124,
      "max": [
        1,
        0.96570169925689697,
        1,
        1
      ],
      "min": [
        -1,
        -0.96761447191238403,
        -0.99999988079071045,
        1
      ],
      "type": "VEC4"
    },
    {
      "bufferView": 0,
      "byteOffset": 19320,
      "componentType": 5125,
      "count": 540,
      "max": [
        123
      ],
      "min": [
        0
      ],
      "type": "SCALAR"
    },
    {
      "bufferView": 1,
      "byteOffset": 30216,
      "componentType": 5126,
      "count": 124,
      "max": [
        1.0000004768371582,
        1.7675471305847168,
        1.0000001192092896
      ],
      "min": [
        -1.0000004768371582,
        -1,
        -1.0000004768371582
      ],
      "type": "VEC3"
    },
    {
      "bufferView": 1,
      "byteOffset": 31704,
      "componentType": 5126,
      "count": 124,
      "max": [
        1,
        1,
        1
      ],
      "min": [
        -1,
        0,
        -1
      ],
      "type": "VEC3"
    },
    {
      "bufferView": 2,
      "byteOffset": 20144,
      "componentType": 5126,
      "count": 124,
      "max": [
        1,
        0.96570169925689697,
        1,
        1
      ],
      "min": [
        -1,
        -0.96761447191238403,
        -0.99999988079071045,
        1
      ],
      "type": "VEC4"
    },
    {
      "bufferView": 0,
      "byteOffset": 21480,
      "componentType": 5125,
      "count": 540,
      "max": [
        123
      ],
      "min": [
        0
      ],
      "type": "SCALAR"
    },
    {
      "bufferView": 1,
      "byteOffset": 33192,
      "componentType": 5126,
      "count": 124,
      "max": [
        1.0000004768371582,
        1.7675471305847168,
        1.0000001192092896
      ],
      "min": [
        -1.0000004768371582,
        -1,
        -1.0000004768371582
      ],
      "type": "VEC3"
    },
    {
      "bufferView": 1,
      "byteOffset": 34680,
      "componentType": 5126,
      "count": 124,
      "max": [
        1,
        1,
        1
      ],
      "min": [
        -1,
        0,
        -1
      ],
      "type": "VEC3"
    },
    {
      "bufferView": 2,
      "byteOffset": 22128,
      "componentType": 5126,
      "count": 124,
      "max": [
        1,
        0.96570169925689697,
        1,
        1
      ],
      "min": [
        -1,
        -0.96761447191238403,
        -0.99999988079071045,
        1
      ],
      "type": "VEC4"
    },
    {
      "bufferView": 0,
      "byteOffset": 23640,
      "componentType": 5125,
      "count": 540,
      "max": [
        123
      ],
      "min": [
        0
      ],
      "type": "SCALAR"
    },
    {
      "bufferView": 1,
      "byteOffset": 36168,
      "componentType": 5126,
      "count": 124,
      "max": [
        1.0000004768371582,
        1.7675471305847168,
        1.0000001192092896
      ],
      "min": [
        -1.0000004768371582,
        -1,
        -1.0000004768371582
      ],
      "type": "VEC3"
    },
    {
      "bufferView": 1,
      "byteOffset": 37656,
      "componentType": 5126,
      "count": 124,
      "max": [
        1,
        1,
        1
      ],
      "min": [
        -1,
        0,
        -1
      ],
      "type": "VEC3"
    },
    {
      "bufferView": 2,
      "byteOffset": 24112,
      "componentType": 5126,
      "count": 124,
      "max": [
        1,
        0.96570169925689697,
        1,
        1
      ],
      "min": [
        -1,
        -0.96761447191238403,
        -0.99999988079071045,
        1
      ],
      "type": "VEC4"
    },
    {
      "bufferView": 0,
      "byteOffset": 25800,
      "componentType": 5125,
      "count": 540,
      "max": [
        123
      ],
      "min": [
        0
      ],
      "type": "SCALAR"
    }
  ],
  "asset": {
    "extras": {
      "author": "jaysalton (https://sketchfab.com/jaysalton)",
      "license": "CC-BY-4.0 (http://creativecommons.org/licenses/by/4.0/)",
      "source": "https://sketchfab.com/models/7fa1820d2c5c42c19ad05d814e950cf2",
      "title": "Low Polly Controler"
    },
    "generator": "Sketchfab-3.18.7",
    "version": "2.0"
  },
  "bufferViews": [
    {
      "buffer": 0,
      "byteLength": 27960,
      "byteOffset": 0,
      "name": "floatBufferViews",
      "target": 34963
    },
    {
      "buffer": 0,
      "byteLength": 39144,
      "byteOffset": 27960,
      "byteStride": 12,
      "name": "floatBufferViews",
      "target": 34962
    },
    {
      "buffer": 0,
      "byteLength": 26096,
      "byteOffset": 67104,
      "byteStride": 16,
      "name": "floatBufferViews",
      "target": 34962
    }
  ],
  "buffers": [
    {
      "byteLength": 93200,
      "uri": "scene.bin"
    }
  ],
  "materials": [
    {
      "doubleSided": true,
      "emissiveFactor": [
        0,
        0,
        0
      ],
      "name": "blinn1",
      "pbrMetallicRoughness": {
        "baseColorFactor": [
          0.876,
          0.876,
          0.876,
          1
        ],
        "metallicFactor": 0,
        "roughnessFactor": 0.59999999999999998
      }
    },
    {
      "doubleSided": true,
      "emissiveFactor": [
        0,
        0,
        0
      ],
      "name": "blinn3",
      "pbrMetallicRoughness": {
        "baseColorFactor": [
          0.5,
          0.5,
          0.5,
          1
        ],
        "metallicFactor": 0,
        "roughnessFactor": 0.59999999999999998
      }
    },
    {
      "doubleSided": true,
      "emissiveFactor": [
        0,
        0,
        0
      ],
      "name": "blinn2",
      "pbrMetallicRoughness": {
        "baseColorFactor": [
          0.254,
          0.254,
          0.254,
          1
        ],
        "metallicFactor": 0,
        "roughnessFactor": 0.59999999999999998
      }
    },
    {
      "doubleSided": true,
      "emissiveFactor": [
        0,
        0,
        0
      ],
      "name": "yButton1",
      "pbrMetallicRoughness": {
        "baseColorFactor": [
          0,
          1,
          0,
          1
        ],
        "metallicFactor": 0,
        "roughnessFactor": 0.59999999999999998
      }
    },
    {
      "doubleSided": true,
      "emissiveFactor": [
        0,
        0,
        0
      ],
      "name": "aButton1",
      "pbrMetallicRoughness": {
        "baseColorFactor": [
          1,
          0,
          0,
          1
        ],
        "metallicFactor": 0,
        "roughnessFactor": 0.59999999999999998
      }
    },
    {
      "doubleSided": true,
      "emissiveFactor": [
        0,
        0,
        0
      ],
      "name": "bButton1",
      "pbrMetallicRoughness": {
        "baseColorFactor": [
          1,
          1,
          0,
          1
        ],
        "metallicFactor": 0,
        "roughnessFactor": 0.59999999999999998
      }
    },
    {
      "doubleSided": true,
      "emissiveFactor": [
        0,
        0,
        0
      ],
      "name": "xButton1",
      "pbrMetallicRoughness": {
        "baseColorFactor": [
          0,
          0,
          1,
          1
        ],
        "metallicFactor": 0,
        "roughnessFactor": 0.59999999999999998
      }
    }
  ],
  "meshes": [
    {
      "name": "pCylinder3_blinn1_0",
      "primitives": [
        {
          "attributes": {
            "NORMAL": 1,
            "POSITION": 0,
            "TANGENT": 2
          },
          "indices": 3,
          "material": 0,
          "mode": 4
        }
      ]
    },
    {
      "name": "pCylinder3_blinn3_0",
      "primitives": [
        {
          "attributes": {
            "NORMAL": 5,
            "POSITION": 4,
            "TANGENT": 6
          },
          "indices": 7,
          "material": 1,
          "mode": 4
        }
      ]
    },
    {
      "name": "pCylinder3_blinn2_0",
      "primitives": [
        {
          "attributes": {
            "NORMAL": 9,
            "POSITION": 8,
            "TANGENT": 10
          },
          "indices": 11,
          "material": 2,
          "mode": 4
        }
      ]
    },
    {
      "name": "buttonPad1_blinn1_0",
      "primitives": [
        {
          "attributes": {
            "NORMAL": 13,
            "POSITION": 12,
            "TANGENT": 14
          },
          "indices": 15,
          "material": 0,
          "mode": 4
        }
      ]
    },
    {
      "name": "buttonPad2_blinn1_0",
      "primitives": [
        {
          "attributes": {
            "NORMAL": 17,
            "POSITION": 16,
            "TANGENT": 18
          },
          "indices": 19,
          "material": 0,
          "mode": 4
        }
      ]
    },
    {
      "name": "yButton_yButton1_0",
      "primitives": [
        {
          "attributes": {
            "NORMAL": 21,
            "POSITION": 20,
            "TANGENT": 22
          },
          "indices": 23,
          "material": 3,
          "mode": 4
        }
      ]
    },
    {
      "name": "aButton_aButton1_0",
      "primitives": [
        {
          "attributes": {
            "NORMAL": 25,
            "POSITION": 24,
            "TANGENT": 26
          },
          "indices": 27,
          "material": 4,
          "mode": 4
        }
      ]
    },
    {
      "name": "bButton_bButton1_0",
      "primitives": [
        {
          "attributes": {
            "NORMAL": 29,
            "POSITION": 28,
            "TANGENT": 30
          },
          "indices": 31,
          "material": 5,
          "mode": 4
        }
      ]
    },
    {
      "name": "xButton_xButton1_0",
      "primitives": [
        {
          "attributes": {
            "NORMAL": 33,
            "POSITION": 32,
            "TANGENT": 34
          },
          "indices": 35,
          "material": 6,
          "mode": 4
        }
      ]
    }
  ],
  "nodes": [
    {
      "children": [
        1
      ],
      "name": "RootNode (gltf orientation matrix)",
      "rotation": [
        -0.70710678118654746,
        -0,
        -0,
        0.70710678118654757
      ]
    },
    {
      "children": [
        2
      ],
      "name": "RootNode (model correction matrix)"
    },
    {
      "children": [
        3
      ],
      "matrix": [
        1,
        0,
        0,
        0,
        0,
        0,
        1,
        0,
        0,
        -1,
        0,
        0,
        0,
        0,
        0,
        1
      ],
      "name": "0a8c392817104b2ea96071d7125045e1.fbx"
    },
    {
      "children": [
        4,
        8,
        10,
        12,
        14,
        16,
        18
      ],
      "name": "RootNode"
    },
    {
      "children": [
        5,
        6,
        7
      ],
      "name": "pCylinder3"
    },
    {
      "mesh": 0,
      "name": "pCylinder3_blinn1_0"
    },
    {
      "mesh": 1,
      "name": "pCylinder3_blinn3_0"
    },
    {
      "mesh": 2,
      "name": "pCylinder3_blinn2_0"
    },
    {
      "children": [
        9
      ],
      "matrix": [
        0.73234854476134625,
        0.51375055916950407,
        0,
        0,
        -0.51375055916950407,
        0.73234854476134625,
        0,
        0,
        0,
        0,
        0.10295367240905762,
        0,
        4.8463730812072754,
        -0.10042350739240646,
        15.806891441345215,
        1
      ],
      "name": "buttonPad1"
    },
    {
      "mesh": 3,
      "name": "buttonPad1_blinn1_0"
    },
    {
      "children": [
        11
      ],
      "matrix": [
        0.73234854476134625,
        0.51375055916950407,
        0,
        0,
        -0.51375055916950407,
        0.73234854476134625,
        0,
        0,
        0,
        0,
        0.10295367240905762,
        0,
        6.9625625610351562,
        -1.8431679010391235,
        15.806891441345215,
        1
      ],
      "name": "buttonPad2"
    },
    {
      "mesh": 4,
      "name": "buttonPad2_blinn1_0"
    },
    {
      "children": [
        13
      ],
      "matrix": [
        0.86811411380767822,
        0,
        0,
        0,
        0,
        5.1376644449366678e-17,
        0.23137983679771423,
        0,
        0,
        -0.86811411380767822,
        1.9276005543026958e-16,
        0,
        4.3439617156982422,
        6.5753350257873535,
        15.33186149597168,
        1
      ],
      "name": "yButton"
    },
    {
      "mesh": 5,
      "name": "yButton_yButton1_0"
    },
    {
      "children": [
        15
      ],
      "matrix": [
        0.86811411380767822,
        0,
        0,
        0,
        0,
        5.1376644449366678e-17,
        0.23137983679771423,
        0,
        0,
        -0.86811411380767822,
        1.9276005543026958e-16,
        0,
        8.778193473815918,
        6.5066013336181641,
        15.33186149597168,
        1
      ],
      "name": "aButton"
    },
    {
      "mesh": 6,
      "name": "aButton_aButton1_0"
    },
    {
      "children": [
        17
      ],
      "matrix": [
        0.86811411380767822,
        0,
        0,
        0,
        0,
        5.1376644449366678e-17,
        0.23137983679771423,
        0,
        0,
        -0.86811411380767822,
        1.9276005543026958e-16,
        0,
        6.5501556396484375,
        4.8715729713439941,
        15.33186149597168,
        1
      ],
      "name": "bButton"
    },
    {
      "mesh": 7,
      "name": "bButton_bButton1_0"
    },
    {
      "children": [
        19
      ],
      "matrix": [
        0.86811411380767822,
        0,
        0,
        0,
        0,
        5.1376644449366678e-17,
        0.23137983679771423,
        0,
        0,
        -0.86811411380767822,
        1.9276005543026958e-16,
        0,
        6.5501556396484375,
        8.1757230758666992,
        15.33186149597168,
        1
      ],
      "name": "xButton"
    },
    {
      "mesh": 8,
      "name": "xButton_xButton1_0"
    }
  ],
  "scene": 0,
  "scenes": [
    {
      "name": "OSG_Scene",
      "nodes": [
        0
      ]
    }
  ]
}

